<svg xmlns="http://www.w3.org/2000/svg" height="48" viewBox="0 -960 960 960" width="48" fill="white"><path d="M480.206-50Q403-50 335.367-79.1q-67.634-29.1-117.9-79.367-50.267-50.266-79.367-117.9Q109-344 109-420h118q0 103.986 74.298 177.993Q375.596-168 480-168q103.986 0 177.993-74.298Q732-316.596 732-421q0-103.986-74.298-177.993Q583.404-673 478.61-673H472l43 43-62 62-164-164 164-164 62 63-43 42h7q77.282 0 144.774 29.1 67.493 29.1 118.259 79.367 50.767 50.266 79.867 117.46Q851-497.879 851-420.94q0 76.94-29.1 144.573-29.1 67.634-79.367 117.9Q692.267-108.2 624.84-79.1 557.413-50 480.206-50Z"/></svg>